<svg width="100" height="100" viewBox="0 0 100 100" fill="none" xmlns="http://www.w3.org/2000/svg">
<path d="M45.1172 2.69526V4.60932L43.7109 5.03901C42.9297 5.29292 41.5625 5.83979 40.6641 6.28901L39.0234 7.08979L37.6758 5.74213L36.3281 4.39448L32.8711 7.87104L29.3945 11.3281L30.7422 12.6757L32.0898 14.0234L31.2891 15.664C30.8398 16.5624 30.293 17.9296 30.0391 18.6913L29.6094 20.1171H27.6953H25.7812V24.9999V29.8828H27.6953H29.6094L30.0391 31.289C30.293 32.0703 30.8398 33.4374 31.2891 34.3359L32.0898 35.9765L30.7422 37.3242L29.3945 38.6718L32.8711 42.1289L36.3281 45.6054L37.4805 44.4531L38.6523 43.3007L38.7695 43.8671C39.0625 45.1757 39.2969 45.664 39.9023 46.289C40.4883 46.8749 40.5273 46.9921 40.4688 48.1445C40.3711 49.9999 41.1914 51.3671 42.8125 52.0507C43.9062 52.4999 56.3672 52.4804 57.3438 52.0312C58.9062 51.289 59.9414 49.2968 59.5898 47.6562C59.4727 47.0507 59.5312 46.914 60.1953 46.2304C60.7227 45.6835 60.9766 45.1953 61.1523 44.414L61.3867 43.3398L62.5391 44.4726L63.6719 45.6054L67.1289 42.1289L70.6055 38.6718L69.2578 37.3242L67.9102 35.9765L68.7109 34.3359C69.1602 33.4374 69.707 32.0703 69.9609 31.289L70.3906 29.8828H72.3047H74.2188V24.9999V20.1171H72.3047H70.3906L69.9609 18.6913C69.707 17.9296 69.1602 16.5624 68.7109 15.664L67.9102 14.0234L69.2578 12.6757L70.6055 11.3281L67.1289 7.87104L63.6719 4.39448L62.3242 5.74213L60.9766 7.08979L59.3359 6.28901C58.4375 5.83979 57.0703 5.29292 56.3086 5.03901L54.8828 4.60932V2.69526V0.781193H50H45.1172V2.69526ZM51.6016 5.70307L51.6602 7.2851L53.3203 7.63667C56.2305 8.24213 58.1445 9.06245 60.4297 10.6835L61.3867 11.3671L62.5195 10.2343L63.6719 9.08198L64.7852 10.2148L65.918 11.3281L64.7852 12.4609L63.6719 13.5937L64.7461 15.2343C65.9961 17.1288 66.875 19.2968 67.3633 21.6601L67.7148 23.3398L69.2969 23.3984L70.8984 23.457V24.9999V26.5429L69.2969 26.6015L67.7148 26.6601L67.3633 28.3203C66.7578 31.2304 65.9375 33.1445 64.3164 35.4296L63.6328 36.3867L64.7656 37.5195L65.918 38.6718L64.7852 39.7851L63.6719 40.9179L62.5195 39.7656L61.3867 38.6328L60.3711 39.3749C59.3555 40.0976 59.3359 40.0976 58.6719 39.7851C58.0273 39.4726 58.0078 39.414 58.0078 38.3984V37.3242L60.0195 35.3124C61.6797 33.6328 62.168 33.0273 62.8516 31.6406C63.9648 29.414 64.4531 27.3632 64.4531 25.0195C64.4531 22.5195 64.0625 20.8007 63.0078 18.6718C61.4844 15.5663 59.1211 13.2617 56.0547 11.8359C51.875 9.92182 46.9141 10.1367 42.832 12.4023C41.2305 13.3007 38.4766 15.996 37.5195 17.6171C34.7266 22.3828 34.9219 28.3789 38.0078 33.0468C38.8281 34.2578 41.4258 36.914 41.8164 36.914C41.9141 36.914 41.9922 37.5195 41.9922 38.2421V39.5703L41.3086 39.8242C40.6445 40.0585 40.5664 40.039 39.6094 39.3554L38.6133 38.6328L37.4805 39.7656L36.3281 40.9179L35.2148 39.7851L34.082 38.6718L35.2148 37.539L36.3281 36.4062L35.2539 34.7656C34.0039 32.871 33.125 30.7031 32.6367 28.3398L32.2852 26.6601L30.7031 26.6015L29.1016 26.5429V24.9999V23.457L30.7031 23.3984L32.2852 23.3398L32.6367 21.6796C33.2422 18.7695 34.0625 16.8554 35.6836 14.5703L36.3672 13.6132L35.2344 12.4804L34.082 11.3281L35.2148 10.2148L36.3281 9.08198L37.4609 10.2148L38.5938 11.3281L40.2344 10.2539C42.1289 9.00385 44.2969 8.12495 46.6602 7.63667L48.3398 7.2851L48.3984 5.70307L48.457 4.10151H50H51.543L51.6016 5.70307ZM52.2461 13.9648C57.4609 15.0585 61.3281 19.8046 61.3281 25.0976C61.3281 26.5039 60.6836 28.8867 59.9219 30.332C59.082 31.8749 57.4805 33.6132 56.0352 34.5117L54.8828 35.2148V37.3242V39.4531H53.2227H51.5625V34.4921V29.5312L52.1289 29.2968C52.8906 28.9843 53.9844 27.871 54.4336 26.9726C54.9219 25.957 54.9023 23.9648 54.3555 22.9492C52.8125 20.0195 49.2188 19.2968 46.8359 21.4453C44.7461 23.3203 44.7266 26.6796 46.7773 28.4765C47.168 28.8476 47.7148 29.2187 47.9688 29.3359L48.4375 29.5507V34.5117V39.4531H46.7773H45.1172V37.3242V35.1953L44.2969 34.707C40.9375 32.7148 38.8477 29.0234 38.8086 24.9999C38.7891 21.8359 39.8633 19.2773 42.207 16.9726C44.8828 14.2968 48.5742 13.2031 52.2461 13.9648ZM51.0547 23.8476C51.4453 24.1601 51.5625 24.414 51.5625 24.9999C51.5625 26.4062 49.9219 27.0703 48.9258 26.0742C47.5 24.6679 49.4727 22.5976 51.0547 23.8476ZM57.6953 42.8906C58.0664 43.0273 58.1055 43.7695 57.7734 44.1015C57.5977 44.2773 55.6055 44.3359 50 44.3359C42.2266 44.3359 41.9922 44.3164 41.9922 43.5546C41.9922 42.7929 42.2266 42.7734 49.9219 42.7734C54.0234 42.7734 57.5195 42.832 57.6953 42.8906ZM56.3281 48.0859C56.4844 48.3398 56.4844 48.5351 56.3281 48.7695C56.1328 49.082 55.5859 49.121 50.3711 49.1796C47.207 49.1992 44.4336 49.1796 44.1992 49.121C43.6914 49.0039 43.4375 48.3203 43.7695 47.9296C43.9648 47.6953 44.9219 47.6562 50.0586 47.6953C55.5664 47.7539 56.1328 47.7929 56.3281 48.0859Z" fill="white"/>
<path d="M13.8672 33.1836C11.875 33.5937 11.2109 34.414 8.69141 39.4726L6.64062 43.5546L4.98047 51.6992L3.32031 59.8437V70.9179C3.32031 81.7773 3.32031 82.0117 3.78906 84.2968C4.04297 85.5859 4.29687 86.914 4.35547 87.246L4.49219 87.8906H2.24609H0V93.5546V99.2187H12.1094H24.2187V93.5546V87.8906H21.7773H19.3359V82.5195V77.1484L20.8008 74.9414C22.1484 72.9296 22.4609 72.246 24.4336 67.0703C25.6055 63.9648 26.7578 60.8203 26.9531 60.0586C27.4609 58.3007 27.4609 56.2304 26.9727 55.1757C25.5859 52.1875 21.5234 51.5625 19.2969 53.9648C18.9844 54.3164 18.1836 55.5078 17.5195 56.6406L16.3086 58.6914L16.25 56.1718C16.2305 54.7851 16.2695 53.5742 16.3477 53.4961C16.4258 53.4179 17.6562 52.8906 19.043 52.3437C22.1094 51.1328 22.8711 50.664 23.5156 49.5703C24.1602 48.457 24.3164 47.4804 24.0234 46.289C23.4375 43.8281 20.9961 42.3046 18.6523 42.9492C18.2422 43.0664 17.8516 43.125 17.8125 43.0859C17.7734 43.0468 17.9687 42.5586 18.2422 42.0117C19.2383 40.0781 19.5703 37.8711 19.1211 36.2695C18.8672 35.3711 17.7734 34.082 16.8164 33.5937C15.957 33.164 14.7656 33.0078 13.8672 33.1836ZM15.6445 36.6992C16.0352 37.0117 16.0937 37.2265 16.0547 38.0468C16.0156 39.2382 15.6445 40.2148 14.0625 43.3398L12.8906 45.7031V52.4414V59.1796L14.3945 62.207C15.2344 63.8671 15.957 65.2343 16.0156 65.2343C16.0742 65.2343 17.3437 63.1836 18.8477 60.7031C20.6836 57.6562 21.7578 56.0546 22.1094 55.8789C22.8125 55.4882 23.6328 55.7812 24.0039 56.5429C24.4336 57.4609 24.0039 59.082 21.6797 65.2734C19.6484 70.7031 19.4922 71.0546 17.8906 73.457L16.2109 75.9765V81.9335V87.8906L11.9727 87.8515L7.73437 87.7929L7.08984 84.6679L6.46484 81.5429L6.44531 71.0937V60.6445L8.02734 52.7539L9.60937 44.8437L11.6406 40.8007C12.7539 38.5742 13.8086 36.6601 14.0039 36.5429C14.5312 36.2304 15.1367 36.289 15.6445 36.6992ZM20.5469 46.4257C20.9961 46.8359 20.9961 47.6953 20.5664 48.1054C20.3711 48.2617 19.7461 48.5937 19.1992 48.8086C18.6328 49.0429 17.7344 49.3945 17.1875 49.6093L16.2109 50V48.5546V47.1093L17.6367 46.6211C19.3164 46.0351 20.0586 45.9765 20.5469 46.4257ZM20.8984 93.5546V95.8984H12.1094H3.32031V93.5546V91.2109H12.1094H20.8984V93.5546Z" fill="white"/>
<path d="M84.2773 33.1835C82.7734 33.5546 81.25 34.9414 80.8789 36.2695C80.4297 37.871 80.7617 40.0781 81.7578 42.0117C82.0313 42.5585 82.2266 43.0468 82.1875 43.0859C82.1484 43.1249 81.7578 43.0664 81.3477 42.9492C79.0039 42.3046 76.5625 43.8281 75.9766 46.289C75.6836 47.4804 75.8398 48.457 76.4844 49.5703C77.1289 50.664 77.8906 51.1328 80.957 52.3437C82.3633 52.8906 83.5742 53.4179 83.6523 53.496C83.7305 53.5742 83.7695 54.7851 83.75 56.1718L83.6914 58.6914L82.4805 56.6406C81.8164 55.5078 81.0156 54.3164 80.7031 53.9648C78.4766 51.5624 74.4141 52.1874 73.0273 55.1757C72.5391 56.2304 72.5391 58.3007 73.0273 60.0585C73.2422 60.8203 74.3359 63.8671 75.4492 66.8359C77.3242 71.7968 77.6172 72.4609 79.082 74.707L80.6641 77.1484V82.5195V87.8906H78.2227H75.7813V93.5546V99.2187H87.8906H100V93.5546V87.8906H97.7539C95.5078 87.8906 95.5078 87.8906 95.6055 87.4414C95.6641 87.207 95.918 85.9179 96.1914 84.5898C96.6797 82.1874 96.6797 82.1093 96.6797 71.1132V60.0585L95.1172 52.1289L93.5547 44.1796L91.4453 39.8046C89.2578 35.3124 88.5352 34.2187 87.3242 33.6132C86.4844 33.1835 85.0781 32.9882 84.2773 33.1835ZM85.957 36.5234C86.1719 36.6406 87.207 38.496 88.3594 40.8007L90.3906 44.8437L91.9727 52.7539L93.5547 60.6445V71.0937L93.5352 81.5429L92.9102 84.6679L92.2656 87.7929L88.0273 87.8515L83.7891 87.8906V81.9335V75.9765L82.1094 73.457C80.5078 71.0546 80.3516 70.7031 78.3203 65.2734C75.9961 59.082 75.5664 57.4609 75.9961 56.5429C76.3672 55.7812 77.1875 55.4882 77.8906 55.8789C78.2422 56.0546 79.3164 57.6562 81.1523 60.7031C82.6563 63.1835 83.9258 65.2343 83.9844 65.2343C84.043 65.2343 84.7656 63.8671 85.6055 62.207L87.1094 59.1796V52.4414V45.7031L85.9375 43.3398C84.3555 40.2148 83.9844 39.2382 83.9453 38.0468C83.9063 37.2265 83.9648 37.0117 84.3555 36.6992C84.8633 36.289 85.3906 36.2304 85.957 36.5234ZM82.2656 46.6015L83.7891 47.1093V48.5546V49.9999L82.7734 49.5898C82.207 49.3554 81.3086 49.0039 80.7617 48.789C80.2344 48.5742 79.6289 48.2617 79.4531 48.1054C78.7109 47.4414 79.2578 46.0937 80.2539 46.0937C80.5273 46.0937 81.4453 46.3281 82.2656 46.6015ZM96.6797 93.5546V95.8984H87.8906H79.1016V93.5546V91.2109H87.8906H96.6797V93.5546Z" fill="white"/>
<path d="M48.4375 57.2265V58.789H50H51.5625V57.2265V55.664H50H48.4375V57.2265Z" fill="white"/>
<path d="M48.4375 63.6718V65.2343H50H51.5625V63.6718V62.1093H50H48.4375V63.6718Z" fill="white"/>
<path d="M48.4375 70.1171V71.6796H50H51.5625V70.1171V68.5546H50H48.4375V70.1171Z" fill="white"/>
<path d="M48.4375 76.6602V78.3203H50H51.5625V76.6602V75H50H48.4375V76.6602Z" fill="white"/>
</svg>
