<svg width="48" height="48" viewBox="0 0 48 48" fill="none" xmlns="http://www.w3.org/2000/svg">
<g clip-path="url(#clip0_2_2)">
<path d="M20.1012 33.8917C20.1012 25.7717 26.7449 19.128 34.865 19.128C36.6366 19.128 38.2607 19.4232 39.737 20.0138L44.0185 13.5177C44.6091 12.6319 44.9044 11.7461 45.052 10.7126C45.1996 10.565 45.1996 10.4173 45.1996 10.2697C45.1996 10.1221 45.1996 10.1221 45.1996 9.97442C45.1996 8.79332 45.052 7.75986 44.6091 6.57876C43.5756 4.51183 41.6563 3.03545 39.4418 2.74017C39.1465 2.74017 38.8512 2.74017 38.5559 2.74017C38.4083 2.74017 38.4083 2.74017 38.2607 2.74017C38.113 2.74017 37.9654 2.74017 37.8177 2.74017H13.4575C13.3099 2.88781 13.1622 2.88781 13.0146 3.03545C13.0146 2.88781 12.8669 2.88781 12.7193 2.88781C8.58545 2.88781 5.33742 6.13584 5.33742 10.2697C5.33742 11.3032 5.63269 12.189 6.22324 13.0748C7.40435 14.9941 9.47128 16.1752 11.8335 16.1752H13.6051L2.08939 33.5965C0.760646 35.6634 0.613008 38.1732 1.64647 40.3878C2.67994 42.4547 4.59923 43.9311 6.8138 44.2264C7.10907 44.2264 7.40435 44.2264 7.69962 44.2264H24.5303C21.7252 41.5689 20.1012 37.878 20.1012 33.8917ZM11.8335 13.2225C10.5047 13.2225 9.32364 12.6319 8.73309 11.5984C8.43781 11.1555 8.29017 10.7126 8.29017 10.2697C8.29017 7.75986 10.2095 5.84057 12.7193 5.84057C12.8669 5.84057 13.0146 5.84057 13.0146 5.69293C13.1622 5.84057 13.3099 5.84057 13.4575 5.84057H32.2075C29.6977 9.0886 30.7311 12.0414 31.3217 13.2225H11.8335Z" fill="#5A58FF" stroke="#5A58FF" stroke-width="1.47638"/>
<path d="M33.3889 45.7028V33.1535L31.4696 35.0728C30.879 35.6634 29.9932 35.6634 29.4026 35.0728C28.8121 34.4823 28.8121 33.5965 29.4026 33.0059L33.8318 28.5768C33.9794 28.4291 34.1271 28.2815 34.2747 28.2815C34.4223 28.1339 34.7176 28.1339 34.8652 28.1339C35.0129 28.1339 35.3082 28.1339 35.4558 28.2815C35.6034 28.4291 35.7511 28.4291 35.8987 28.5768L40.3278 33.0059C40.9184 33.5965 40.9184 34.4823 40.3278 35.0728C39.7373 35.6634 38.8515 35.6634 38.2609 35.0728L36.3416 33.1535V45.7028C42.0995 44.9646 46.6763 39.9449 46.6763 34.0394C46.6763 27.5433 41.3613 22.2283 34.8652 22.2283C28.3692 22.2283 23.0542 27.5433 23.0542 34.0394C23.0542 40.0925 27.631 44.9646 33.3889 45.7028Z" fill="#FF6359" stroke="#FF6359" stroke-width="1.47638"/>
</g>
<defs>
<clipPath id="clip0_2_2">
<rect width="47.2441" height="47.2441" fill="white" transform="translate(0.37793 0.377991)"/>
</clipPath>
</defs>
</svg>
