<svg width="84" height="88" viewBox="0 0 84 88" fill="none" xmlns="http://www.w3.org/2000/svg">
<path d="M6.30859 0.186279C3.57422 0.650345 1.23047 2.50659 0.332031 4.87846C0.0195312 5.6519 0 8.5394 0 39.0988C0 69.7097 0.0195312 72.5457 0.332031 73.3191C1.09375 75.3128 2.83203 76.9285 5.01953 77.7191C6.09375 78.08 6.44531 78.1144 11.7383 78.166L17.3438 78.2175L17.4219 80.4863C17.5 82.291 17.5977 82.9613 17.9492 83.7347C18.457 84.8863 19.9219 86.3988 21.1914 87.0347C23.125 88.0488 21.9141 88.0144 51.1914 87.9628L78.0273 87.9113L79.1211 87.516C80.5859 87.0003 81.875 86.0894 82.7148 84.9722C84.082 83.1847 83.9844 85.7457 83.9844 50.2535C83.9844 20.7253 83.9648 18.0441 83.6523 17.2535C82.7344 14.83 80.4492 13.1285 77.6172 12.716C76.9922 12.6128 74.9609 12.5441 73.1055 12.5441H69.7461L69.6875 8.88316L69.6289 5.2394L69.0234 4.10503C67.9297 2.0769 65.7422 0.581589 63.3008 0.16909C62.0117 -0.0371552 7.53906 -0.0371552 6.30859 0.186279ZM64.043 3.34878C65.2148 3.91597 66.1133 4.86128 66.4062 5.84097C66.543 6.27065 66.582 17.7347 66.5625 39.4597L66.5039 72.4425L66.0742 73.1644C65.5078 74.0925 64.3945 74.8832 63.2031 75.1925C61.7383 75.5707 7.98828 75.5707 6.52344 75.1925C5.23438 74.866 4.16016 74.041 3.59375 72.9753L3.125 72.0988V39.0816V6.08159L3.67188 5.15347C4.31641 4.03628 5.3125 3.29722 6.58203 2.98784C7.32422 2.81596 13.0664 2.78159 35.2539 2.79878L62.9883 2.83315L64.043 3.34878ZM77.1289 15.466C78.5547 15.7066 79.7266 16.4628 80.3516 17.5628L80.8594 18.4566V50.2535V82.0675L80.3906 82.9613C79.8047 84.0441 78.6914 84.8175 77.2852 85.0753C76.582 85.1957 68.1836 85.2472 50.0977 85.2128L23.9258 85.1613L23.125 84.7832C21.9531 84.2332 20.957 83.1332 20.7227 82.1191C20.6055 81.655 20.5078 80.5894 20.5078 79.7472V78.2003H41.5625C64.1211 78.2003 63.6719 78.2175 65.6055 77.341C66.8555 76.791 68.3203 75.3988 69.0039 74.1269L69.6289 72.9582L69.6875 44.1175L69.7266 15.2941H72.9297C74.6875 15.2941 76.582 15.3628 77.1289 15.466Z" fill="white"/>
<path d="M16.3084 18.6457C15.5271 19.3332 15.7224 20.2957 16.7381 20.7597C17.3435 21.0519 52.3045 21.0519 53.0076 20.7769C53.6131 20.5363 53.9646 19.7972 53.7888 19.1785C53.5154 18.1644 54.4724 18.216 34.8045 18.216H16.7771L16.3084 18.6457Z" fill="white"/>
<path d="M16.3084 29.8175C15.5271 30.505 15.7224 31.4675 16.7381 31.9316C17.3435 32.2238 52.3045 32.2238 53.0076 31.9488C53.6131 31.7082 53.9646 30.9691 53.7888 30.3503C53.5154 29.3363 54.4724 29.3878 34.8045 29.3878H16.7771L16.3084 29.8175Z" fill="white"/>
<path d="M16.3084 40.9894C15.5271 41.6769 15.7224 42.6394 16.7381 43.1035C17.3435 43.3957 52.3045 43.3957 53.0076 43.1207C53.6131 42.88 53.9646 42.141 53.7888 41.5222C53.5154 40.5082 54.4724 40.5597 34.8045 40.5597H16.7771L16.3084 40.9894Z" fill="white"/>
<path d="M16.3084 52.1613C15.5271 52.8488 15.7224 53.8113 16.7381 54.2753C17.0506 54.43 19.9021 54.4816 26.992 54.4816C35.7029 54.4816 36.8748 54.4472 37.2654 54.2066C37.8904 53.8285 38.1248 53.2097 37.8709 52.6425C37.4802 51.7144 37.7927 51.7488 26.8943 51.7316H16.7771L16.3084 52.1613Z" fill="white"/>
</svg>
