<svg width="27" height="28" viewBox="0 0 27 28" fill="none" xmlns="http://www.w3.org/2000/svg">
<path d="M10.8203 0.444275C4.97947 0.444275 0.255371 5.16838 0.255371 11.0092C0.255371 16.85 4.97947 21.5741 10.8203 21.5741C12.9056 21.5741 14.8355 20.9623 16.4717 19.9233L24.1041 27.5557L26.7453 24.9144L19.21 17.3986C20.5646 15.6216 21.3852 13.4198 21.3852 11.0092C21.3852 5.16838 16.6611 0.444275 10.8203 0.444275ZM10.8203 2.93013C15.2943 2.93013 18.8993 6.53511 18.8993 11.0092C18.8993 15.4832 15.2943 19.0882 10.8203 19.0882C6.34621 19.0882 2.74123 15.4832 2.74123 11.0092C2.74123 6.53511 6.34621 2.93013 10.8203 2.93013Z" fill="#FF6359"/>
</svg>
